<svg xmlns="http://www.w3.org/2000/svg" width="98.197" height="110.443" viewBox="0 0 98.197 110.443">
  <g id="Down_Arrow" data-name="Down Arrow" transform="translate(-580.374 -1518.55)">
    <g id="_Path_" data-name="&lt;Path&gt;">
      <path id="_Path_2" data-name="&lt;Path&gt;" d="M589.374,1582.748l37.246.467v0l42.951.539-42.951,36.239Z" fill="#fff" stroke="#fff" stroke-linecap="round" stroke-linejoin="round" stroke-width="16.482"/>
      <g id="Stroke_Effect" data-name="Stroke Effect" fill="none" stroke-linejoin="round">
        <path d="M589.374,1582.748l37.246.467v0l42.951.539-42.951,36.239Z" stroke="none"/>
        <path d="M 626.61962890625 1619.993774414062 L 669.5703125 1583.75439453125 L 626.61962890625 1583.215454101562 L 626.61962890625 1527.55029296875 L 626.61962890625 1583.215454101562 L 589.3740234375 1582.748168945312 L 626.61962890625 1619.993774414062 M 626.6215209960938 1628.993774414062 C 624.3095092773438 1628.993774414062 622.0054931640625 1628.107666015625 620.2556762695312 1626.357788085938 L 583.0100708007812 1589.112060546875 C 580.4215698242188 1586.523559570312 579.6588134765625 1582.625122070312 581.0808715820312 1579.251953125 C 582.5029296875 1575.878662109375 585.8287353515625 1573.693359375 589.4869384765625 1573.748901367188 L 617.61962890625 1574.101806640625 L 617.61962890625 1527.55029296875 C 617.61962890625 1522.579711914062 621.6490478515625 1518.55029296875 626.61962890625 1518.55029296875 C 631.5902099609375 1518.55029296875 635.61962890625 1522.579711914062 635.61962890625 1527.55029296875 L 635.61962890625 1574.32763671875 L 669.6832275390625 1574.755126953125 C 673.4413452148438 1574.80224609375 676.7744750976562 1577.179809570312 678.0425415039062 1580.7177734375 C 679.3106689453125 1584.255859375 678.2466430664062 1588.209350585938 675.3741455078125 1590.633056640625 L 632.4234619140625 1626.872436523438 C 630.7410278320312 1628.2919921875 628.6780395507812 1628.993774414062 626.6215209960938 1628.993774414062 Z" stroke="none" fill="#25282d"/>
      </g>
    </g>
  </g>
</svg>
