<svg xmlns="http://www.w3.org/2000/svg" width="133.451" height="133.467" viewBox="0 0 133.451 133.467">
  <g id="Gif_Icon" data-name="Gif Icon" transform="translate(-275.603 -932.716)">
    <path id="_Compound_Path_" data-name="&lt;Compound Path&gt;" d="M383.75,932.716H300.892a25.3,25.3,0,0,0-25.289,25.3v82.858a25.306,25.306,0,0,0,25.289,25.3H383.75a25.31,25.31,0,0,0,25.3-25.3V958.02A25.3,25.3,0,0,0,383.75,932.716Zm-41.982,120.973c-29.231.045-53.641-24.4-53.687-53.732a54.12,54.12,0,1,1,108.238-.318C396.319,1029.612,372.06,1053.659,341.767,1053.689Z" fill="#fff"/>
    <path id="_Compound_Path_2" data-name="&lt;Compound Path&gt;" d="M342.04,945.466a54.116,54.116,0,0,0-53.96,54.49c.046,29.337,24.456,53.778,53.687,53.732,30.293-.03,54.551-24.077,54.551-54.051A54.143,54.143,0,0,0,342.04,945.466Zm-7.171,64.831a4.9,4.9,0,0,1-2.653,4.336c-10.007,5.776-23.5-.849-25.123-12.326A17.09,17.09,0,0,1,324.6,982.46a19.666,19.666,0,0,1,5.079.97,4.086,4.086,0,0,1,2.82,5.322,4.2,4.2,0,0,1-5.382,2.547c-4.457-1.3-8.445.091-10.643,3.7a8.776,8.776,0,0,0,.576,9.991,8.654,8.654,0,0,0,9.461,2.971v-2.987c-.743,0-1.471.015-2.183,0a4.284,4.284,0,0,1-4.442-4.291,4.187,4.187,0,0,1,4.488-4.033c1.516-.015,3.047-.03,4.564,0a5.951,5.951,0,0,1,5.943,5.837C334.945,1005.1,334.945,1007.689,334.869,1010.3Zm14.312,1.865a4.253,4.253,0,0,1-4.154,4.548,4.2,4.2,0,0,1-4.154-4.518q-.023-6.3-.015-12.6t.015-12.6c0-2.653,1.729-4.534,4.109-4.549a4.239,4.239,0,0,1,4.2,4.5Q349.2,999.57,349.181,1012.161Zm23.743-21.423c-2.9.015-5.792,0-8.763,0v5.4c1.592,0,3.138-.015,4.685,0,2.563.03,4.321,1.637,4.4,3.972a4.144,4.144,0,0,1-4.215,4.321c-1.592.076-3.2.015-4.958.015,0,2.744.015,5.261,0,7.763a4.166,4.166,0,1,1-8.308.046q-.023-12.668,0-25.35a4.176,4.176,0,0,1,4.473-4.488q6.368-.023,12.751,0a4.248,4.248,0,0,1,4.5,4.2C377.458,989.025,375.578,990.723,372.924,990.739Z" fill="#622fae"/>
    <path id="_Path_" data-name="&lt;Path&gt;" d="M334.869,1010.3a4.9,4.9,0,0,1-2.653,4.336c-10.007,5.776-23.5-.849-25.123-12.326A17.09,17.09,0,0,1,324.6,982.46a19.666,19.666,0,0,1,5.079.97,4.086,4.086,0,0,1,2.82,5.322,4.2,4.2,0,0,1-5.382,2.547c-4.457-1.3-8.445.091-10.643,3.7a8.776,8.776,0,0,0,.576,9.991,8.654,8.654,0,0,0,9.461,2.971v-2.987c-.743,0-1.471.015-2.183,0a4.284,4.284,0,0,1-4.442-4.291,4.187,4.187,0,0,1,4.488-4.033c1.516-.015,3.047-.03,4.564,0a5.951,5.951,0,0,1,5.943,5.837C334.945,1005.1,334.945,1007.689,334.869,1010.3Z" fill="#fff"/>
    <path id="_Path_2" data-name="&lt;Path&gt;" d="M364.161,990.739v5.4c1.592,0,3.138-.015,4.685,0,2.563.03,4.321,1.637,4.4,3.972a4.144,4.144,0,0,1-4.215,4.321c-1.592.076-3.2.015-4.958.015,0,2.744.015,5.261,0,7.763a4.166,4.166,0,1,1-8.308.046q-.023-12.668,0-25.35a4.176,4.176,0,0,1,4.473-4.488q6.368-.023,12.751,0a4.248,4.248,0,0,1,4.5,4.2c-.03,2.41-1.91,4.109-4.564,4.124C370.028,990.754,367.133,990.739,364.161,990.739Z" fill="#fff"/>
    <path id="_Path_3" data-name="&lt;Path&gt;" d="M349.181,986.948q.023,12.622,0,25.213a4.253,4.253,0,0,1-4.154,4.548,4.2,4.2,0,0,1-4.154-4.518q-.023-6.3-.015-12.6t.015-12.6c0-2.653,1.729-4.534,4.109-4.549A4.239,4.239,0,0,1,349.181,986.948Z" fill="#fff"/>
  </g>
</svg>
