<svg xmlns="http://www.w3.org/2000/svg" width="81.056" height="93.594" viewBox="0 0 81.056 93.594">
  <g id="Bottom-_No_Background" data-name="Bottom- No Background" transform="translate(-188.99 1100.147) rotate(-90)">
    <path id="Rectangle_3" data-name="Rectangle 3" d="M1088.147,269.046h-69.594a11,11,0,0,1-11-11V200.989a11,11,0,0,1,11-11h69.594a11,11,0,0,1,11,11v57.056A11,11,0,0,1,1088.147,269.046Z" fill="#f9c623" stroke="#181511" stroke-width="2"/>
    <path id="Rectangle_4" data-name="Rectangle 4" d="M1083.633,261.74h-60.567a2,2,0,0,1-2-2v-2.2a2,2,0,0,1,2-2h60.567a2,2,0,0,1,2,2v2.2A2,2,0,0,1,1083.633,261.74Z" fill="#181511"/>
  </g>
</svg>