<svg xmlns="http://www.w3.org/2000/svg" width="133.456" height="133.456" viewBox="0 0 133.456 133.456">
  <g id="No_Ads_Icon" data-name="No Ads Icon" transform="translate(-275.598 -1105.363)">
    <path id="_Compound_Path_" data-name="&lt;Compound Path&gt;" d="M300.9,1105.363h82.854a25.3,25.3,0,0,1,25.3,25.3v82.854a25.3,25.3,0,0,1-25.3,25.3H300.9a25.3,25.3,0,0,1-25.3-25.3v-82.854A25.3,25.3,0,0,1,300.9,1105.363ZM279.88,1176.39a62.455,62.455,0,1,0,62.461-66.863A62.731,62.731,0,0,0,279.88,1176.39Z" fill="#fff"/>
    <path id="_Compound_Path_2" data-name="&lt;Compound Path&gt;" d="M279.724,1171.842a62.455,62.455,0,1,1,62.36,62.576A62.557,62.557,0,0,1,279.724,1171.842Zm21.485-34.972c-17.5,19.582-18.619,52.49,3.182,73.756,22.122,21.578,54.621,18.9,72.865,2.3q-7.863-7.865-15.736-15.715a1.55,1.55,0,0,0-1-.415c-3.205.024-6.41.121-9.615.14a4.177,4.177,0,0,1-4.56-4.51c-.016-3.121.035-6.244-.038-9.364a2.86,2.86,0,0,0-.738-1.778c-4.776-4.85-9.6-9.651-14.417-14.462-.245-.245-.522-.46-.963-.844.116.417.158.58.207.741q3.654,12.187,7.305,24.375c.791,2.649-.289,4.919-2.643,5.648s-4.533-.573-5.337-3.22c-.818-2.691-1.631-5.385-2.4-8.091a1.151,1.151,0,0,0-1.336-1c-2.948.051-5.9.068-8.845-.007-.942-.024-1.253.346-1.51,1.156-.915,2.888-1.852,5.771-2.879,8.62a4.057,4.057,0,0,1-5.164,2.517,4.116,4.116,0,0,1-2.7-5.07c.3-1.13.65-2.245.986-3.364q5.247-17.469,10.468-34.947a1.878,1.878,0,0,0-.292-1.564C311.157,1146.8,306.212,1141.879,301.209,1136.871Zm45.133,33.159v-1.4c0-5.766-.013-11.533.007-17.3A4.113,4.113,0,0,1,350.68,1147c2.905-.023,5.811-.038,8.716.008a20.613,20.613,0,0,1,19.975,17.934,99.706,99.706,0,0,1,.258,11.426,19.214,19.214,0,0,1-4.445,12.484,69.313,69.313,0,0,1-4.939,4.928l13.074,13.073c16.524-18.2,19.117-50.869-2.761-72.953-21.574-21.778-54.349-20.06-73.35-2.995Zm8.5-14.629c-.071.075-.126.106-.126.138-.017,7.5-.037,15-.018,22.5a1.79,1.79,0,0,0,.548,1.087c2.587,2.626,5.217,5.208,7.794,7.844a1.088,1.088,0,0,0,1.554.254c3.446-1.933,6-4.739,6.389-8.667a88.189,88.189,0,0,0,.081-12.831c-.127-2.72-1.629-4.98-3.57-6.893C363.9,1155.3,359.442,1155.031,354.841,1155.4Zm-33.333,10.757-.291,0-2.984,9.92h6.255Z" fill="#622fae"/>
    <path id="_Path_" data-name="&lt;Path&gt;" d="M301.209,1136.871c5,5.008,9.948,9.934,14.84,14.912a1.878,1.878,0,0,1,.292,1.564q-5.192,17.485-10.468,34.947c-.336,1.119-.688,2.234-.986,3.364a4.116,4.116,0,0,0,2.7,5.07,4.057,4.057,0,0,0,5.164-2.517c1.027-2.849,1.964-5.732,2.879-8.62.257-.81.568-1.18,1.51-1.156,2.947.075,5.9.059,8.845.007a1.151,1.151,0,0,1,1.336,1c.767,2.706,1.58,5.4,2.4,8.091.8,2.647,2.983,3.949,5.337,3.22s3.434-3,2.643-5.648q-3.64-12.191-7.305-24.375c-.048-.161-.09-.324-.207-.741.441.384.717.6.963.844,4.816,4.811,9.641,9.612,14.417,14.462a2.86,2.86,0,0,1,.738,1.778c.073,3.12.022,6.242.038,9.364a4.177,4.177,0,0,0,4.56,4.51c3.205-.019,6.41-.116,9.615-.14a1.55,1.55,0,0,1,1,.415q7.886,7.839,15.736,15.715c-18.244,16.591-50.743,19.273-72.865-2.3C282.59,1189.361,283.713,1156.453,301.209,1136.871Z" fill="#fff"/>
    <path id="_Path_2" data-name="&lt;Path&gt;" d="M346.342,1170.03,307.207,1130.9c19-17.065,51.776-18.783,73.35,2.995,21.878,22.085,19.285,54.756,2.761,72.953l-13.074-13.073a69.313,69.313,0,0,0,4.939-4.928,19.214,19.214,0,0,0,4.445-12.484,99.706,99.706,0,0,0-.258-11.426,20.613,20.613,0,0,0-19.975-17.934c-2.9-.045-5.811-.031-8.716-.008a4.113,4.113,0,0,0-4.331,4.334c-.02,5.766-.007,11.532-.007,17.3Z" fill="#fff"/>
    <path id="_Path_3" data-name="&lt;Path&gt;" d="M354.841,1155.4c4.6-.37,9.062-.105,12.651,3.432,1.94,1.913,3.443,4.173,3.57,6.893a88.189,88.189,0,0,1-.081,12.831c-.392,3.928-2.943,6.733-6.389,8.667a1.088,1.088,0,0,1-1.554-.254c-2.576-2.636-5.207-5.218-7.794-7.844a1.79,1.79,0,0,1-.548-1.087c-.019-7.5,0-15,.018-22.5C354.714,1155.508,354.77,1155.476,354.841,1155.4Z" fill="#fff"/>
    <path id="_Path_4" data-name="&lt;Path&gt;" d="M321.508,1166.158l2.98,9.916h-6.255l2.984-9.92Z" fill="#fff"/>
  </g>
</svg>
