<svg xmlns="http://www.w3.org/2000/svg" width="133.451" height="133.467" viewBox="0 0 133.451 133.467">
  <g id="_Group_" data-name="&lt;Group&gt;" transform="translate(-275.406 -1369.422)">
    <path id="_Path_" data-name="&lt;Path&gt;" d="M408.857,1394.726v82.857a25.309,25.309,0,0,1-25.3,25.3H300.7a25.306,25.306,0,0,1-25.289-25.3v-82.857a25.3,25.3,0,0,1,25.289-25.3h82.858A25.3,25.3,0,0,1,408.857,1394.726Z" fill="#fff"/>
    <g id="_Group_2" data-name="&lt;Group&gt;">
      <path id="_Compound_Path_" data-name="&lt;Compound Path&gt;" d="M380.172,1382.261a16.883,16.883,0,0,1,7.289,2.8c2.817,2.107,4.336,4.7,4.43,7.8.065,2.139.026,4.28.026,6.42q0,39.626,0,79.251c0,5.343-3.461,9.447-9.325,10.933a18.577,18.577,0,0,1-4.464.556q-35.976.05-71.952.017c-7.584-.006-13.328-4.453-13.795-10.583-.024-.315-.041-.631-.041-.946q0-42.362-.007-84.724c0-4.4,2.181-7.83,6.9-10.042a34.507,34.507,0,0,1,4.951-1.478Zm5.434,81.747c.027-.447.065-.788.065-1.129q0-34.622,0-69.244c0-3.952-2.968-6.32-7.889-6.321q-35.581,0-71.163,0c-5,0-8.034,2.431-8.035,6.47q-.011,42.357,0,84.714c0,4.012,3.1,6.488,8.044,6.489q25.889,0,51.778,0h1.46c0-2.488-.029-4.833.007-7.178.063-4.076,1.99-7.5,5.718-10.225a19.731,19.731,0,0,1,12.03-3.578C380.255,1464.014,382.889,1464.008,385.606,1464.008Zm-.013,9.249-14.485,11.714c2.456,0,5.183.081,7.9-.021,3.243-.122,6.236-2.263,6.53-4.873A59.167,59.167,0,0,0,385.593,1473.257Zm-19.384,7.893,15.211-11.928C371.747,1468.176,364.889,1472.1,366.209,1481.151Z" fill="#feb720"/>
      <path id="_Compound_Path_2" data-name="&lt;Compound Path&gt;" d="M356.711,1437.478a3.119,3.119,0,0,1-3.051-1.93c-.957-2.25-1.918-4.5-2.8-6.771-.251-.649-.591-.874-1.438-.868q-7.283.049-14.566,0c-.807-.005-1.114.226-1.348.82-.882,2.234-1.829,4.451-2.769,6.669a3.4,3.4,0,0,1-4.2,1.957,2.465,2.465,0,0,1-1.742-3.569q7.112-17.121,14.249-34.236a3.233,3.233,0,0,1,3.193-2.087,3.116,3.116,0,0,1,3.008,2.12q7.109,17.011,14.21,34.024C360.345,1435.718,359.075,1437.49,356.711,1437.478Zm-8.339-14.638-6.1-14.618-.272.016-6.088,14.6Z" fill="#feb720"/>
      <path id="_Path_2" data-name="&lt;Path&gt;" d="M342.177,1442.558q15.089,0,30.179,0c2.427,0,3.808,1.04,3.689,2.713a2.611,2.611,0,0,1-2.461,2.252,14.156,14.156,0,0,1-1.815.079q-29.593.006-59.187,0c-.52,0-1.043,0-1.558-.051-1.62-.156-2.684-1.1-2.723-2.388-.04-1.33,1.018-2.361,2.66-2.552a13.529,13.529,0,0,1,1.556-.057Q327.347,1442.555,342.177,1442.558Z" fill="#feb720"/>
      <path id="_Path_3" data-name="&lt;Path&gt;" d="M342.242,1454.439q15.088,0,30.175,0c2.2,0,3.521.866,3.626,2.33.1,1.354-.981,2.452-2.657,2.676a8.9,8.9,0,0,1-1.167.041q-30.045,0-60.091,0c-2.36,0-3.745-.878-3.825-2.4-.076-1.443,1.158-2.56,2.983-2.626,1.341-.048,2.687-.02,4.031-.02Z" fill="#feb720"/>
      <path id="_Path_4" data-name="&lt;Path&gt;" d="M365.917,1402.5c-4.5,0-9.01.018-13.514-.008-1.817-.011-3.082-1.014-3.161-2.389-.078-1.348,1.122-2.44,2.9-2.617.428-.042.865-.032,1.3-.032q8.252,0,16.5,0,4.418,0,8.836,0a9.9,9.9,0,0,1,1.295.054c1.694.228,2.8,1.32,2.7,2.645s-1.343,2.324-3.086,2.335C375.1,1402.522,370.508,1402.5,365.917,1402.5Z" fill="#feb720"/>
      <path id="_Path_5" data-name="&lt;Path&gt;" d="M318.31,1402.508q-6.571,0-13.142,0c-2.215,0-3.576-.951-3.6-2.469-.023-1.541,1.4-2.573,3.64-2.576q13.142-.017,26.283,0c1.893,0,3.038.65,3.482,1.885a2.12,2.12,0,0,1-1.2,2.665,6.025,6.025,0,0,1-2.329.476C327.072,1402.531,322.691,1402.508,318.31,1402.508Z" fill="#feb720"/>
      <path id="_Path_6" data-name="&lt;Path&gt;" d="M315.244,1412.371c-3.381,0-6.763.008-10.144,0-2.147-.006-3.539-1.019-3.528-2.536s1.413-2.507,3.575-2.51q10.014-.014,20.028,0c2.168,0,3.567.992,3.592,2.5.026,1.545-1.392,2.547-3.639,2.552Q320.186,1412.379,315.244,1412.371Z" fill="#feb720"/>
      <path id="_Path_7" data-name="&lt;Path&gt;" d="M369.195,1412.371c-3.381,0-6.763.009-10.144,0-2.069-.007-3.438-1-3.465-2.482s1.352-2.554,3.38-2.559q10.209-.025,20.418,0c1.87,0,3.2.915,3.383,2.23a2.569,2.569,0,0,1-2.273,2.713,6.975,6.975,0,0,1-1.416.1Q374.137,1412.379,369.195,1412.371Z" fill="#feb720"/>
      <path id="_Path_8" data-name="&lt;Path&gt;" d="M374.315,1422.239c-1.648,0-3.3.024-4.944-.006-2.027-.037-3.355-1.108-3.307-2.611.046-1.453,1.361-2.419,3.378-2.428q5.009-.023,10.018,0c1.972.011,3.309,1.035,3.322,2.483s-1.324,2.513-3.263,2.553C377.785,1422.267,376.049,1422.239,374.315,1422.239Z" fill="#feb720"/>
      <path id="_Path_9" data-name="&lt;Path&gt;" d="M310.03,1417.191c1.647,0,3.295-.018,4.942,0,1.887.026,3.209,1.027,3.262,2.427.054,1.432-1.284,2.58-3.2,2.6q-5.136.062-10.273,0c-1.916-.023-3.239-1.16-3.192-2.6.046-1.4,1.369-2.4,3.256-2.428C306.561,1417.173,308.3,1417.191,310.03,1417.191Z" fill="#feb720"/>
    </g>
  </g>
</svg>
