<svg xmlns="http://www.w3.org/2000/svg" width="759.585" height="121.609" viewBox="0 0 759.585 121.609">
  <g id="_Group_" data-name="&lt;Group&gt;" transform="translate(-244.7 -1405.188)">
    <path id="_Path_" data-name="&lt;Path&gt;" d="M622.45,1465.218a23.282,23.282,0,0,1,2.6,12.735,15.556,15.556,0,0,1-7.341,12.086c-5.144,3.4-13.234,4.994-18.978,5.094h-1.049q-15.282,0-23.423-7.841c-4.994,5.294-12.335,8.141-21.925,8.49l-9.938.4c-.7.05-1.348.05-1.9.05h-.7a13.556,13.556,0,0,1-5.594-1.3,18.815,18.815,0,0,1-3.4,1.448,19.579,19.579,0,0,1-6.143.849,16.914,16.914,0,0,1-3.7-.349c-6.943-1.448-11.837-6.443-12.586-12.785-.3-2.647-.65-6.343-1-10.488a17.724,17.724,0,0,1-2.3.15,21.053,21.053,0,0,1-4.795-.549c.2,2.247.849,11.686.849,11.686a12.518,12.518,0,0,1-6.792,12.436c-4.445,2.547-10.238,2.747-11.886,2.747a18.922,18.922,0,0,1-9.289-2.1,1.519,1.519,0,0,1-.35-.249,27.513,27.513,0,0,1-13.084,4.344c-1.1.1-2.2.15-3.346.15a30.743,30.743,0,0,1-16.68-4.744c-3.846,5.044-10.438,8.091-20.127,9.489a47.476,47.476,0,0,1-6.992.5,38.88,38.88,0,0,1-18.928-4.595c-4.445,4.2-10.688,6.792-18.629,7.841l-9.938,1.349c-.9.15-1.748.25-2.5.3a5.416,5.416,0,0,1-.9.05,15.16,15.16,0,0,1-4.844-.8,19.461,19.461,0,0,1-7.841,2.747,40.162,40.162,0,0,1-4.545.349,19.214,19.214,0,0,1-4.544-.549,20.386,20.386,0,0,1-7.043,2.447,26.187,26.187,0,0,1-3.945.3,23.563,23.563,0,0,1-13.983-4.445c-4.246,5.694-10.788,10.488-20.377,12.585a50.754,50.754,0,0,1-10.837,1.2,45.559,45.559,0,0,1-24.971-7.341c-5.544-3.546-7.691-10.888-5.444-18.628a21.562,21.562,0,0,1,3.7-7.242q-8.539-5.917-11.537-18.029c-4.294-17.63,9.689-32.662,25.121-36.508a70.408,70.408,0,0,1,16.581-2,48.928,48.928,0,0,1,16.431,2.547c5.194,1.847,8.54,6.343,9.339,11.986a30.223,30.223,0,0,1,6.293-.749,17.123,17.123,0,0,1,7.391,1.5,2.958,2.958,0,0,0,.4.2,15.659,15.659,0,0,1,2.048-1.549,24.817,24.817,0,0,1,11.037-3.6c-.549-4.395-.9-7.991-1-10.138-.249-3.646.55-11.237,11.487-14.283a24.5,24.5,0,0,1,6.293-.849c11.487.05,14.234,7.541,14.883,10.787.25,1.3.7,4.046,1.2,7.491a29.521,29.521,0,0,1,15.632,5.643c3.846-4.345,9.589-7.391,16.93-8.939a39.531,39.531,0,0,1,7.891-.75,56.793,56.793,0,0,1,19.477,3.745c6.293-6.492,14.733-7.94,20.677-8.44q1.723-.15,3.3-.15a24.342,24.342,0,0,1,13.534,3.7,19.761,19.761,0,0,1,8.79-2.547c.949-.05,1.9-.1,2.747-.1a18.932,18.932,0,0,1,7.191,1.249,21.334,21.334,0,0,1,8.241-2.248c.6-.05,1.149-.05,1.7-.05a23.337,23.337,0,0,1,7.391,1.148,15.028,15.028,0,0,1-1.3-5.443l-.1-1.4a15.732,15.732,0,0,1,4.1-11.587,16.226,16.226,0,0,1,11.387-5.393s2.2-.1,2.347-.1a17.906,17.906,0,0,1,5.194.8,17.629,17.629,0,0,1,8.141-3.4,19.917,19.917,0,0,1,4.2-.4c.749,0,1.5.05,2.247.1,11.337,1.1,13.335,8.84,13.684,12.135.15,1.3.35,4.1.55,7.541a27.912,27.912,0,0,1,16.78,8.79c4.2-3.9,10.338-6.742,19.228-7.641,1.2-.1,2.347-.2,3.5-.2,14.384,0,26.419,8.94,28.617,21.275C626.345,1454.181,625.4,1460.274,622.45,1465.218Z" fill="#25282d"/>
    <path id="_Path_2" data-name="&lt;Path&gt;" d="M737.367,1435.7c5.544,6.093,7.741,15.182,6.992,28.667-.849,14.433-4.645,33.661-28.068,33.661-.9,0-1.847,0-2.846-.05-5.893-.3-12.286-1.8-17.43-5.993a12.123,12.123,0,0,1-3.9,2.048,34.961,34.961,0,0,1-11.138,1.648h-1.7c-23.672-.7-25.221-15.532-24.821-34.86v-1.6c-3.1-1.548-6.243-4.794-6.943-11.536l-.049-.5a36.438,36.438,0,0,1,.149-7.391c1.049-7.491,4.695-10.687,8.141-11.986.05-1.5.1-2.747.15-3.8.049-2.7,1.2-11.637,13.434-13.035a23.92,23.92,0,0,1,2.946-.15,31.286,31.286,0,0,1,4.845.35c11.986,2.048,12.685,10.987,12.635,13.634,0,.5-.1,1.5-.2,2.8a22.712,22.712,0,0,1,2.746.15,12.988,12.988,0,0,1,7.441,3,28.847,28.847,0,0,1,14.233-3.246c.9,0,1.8,0,2.747.05C723.183,1427.862,731.423,1429.06,737.367,1435.7Z" fill="#25282d"/>
    <path id="_Path_3" data-name="&lt;Path&gt;" d="M998.863,1479.551s-8.191,5.744-10.088,7.043c3.446,9.089,6.143,16.98,7.191,20.925.9,3,1.948,10.937-7.94,16.231a2.019,2.019,0,0,1-.45.25,36.716,36.716,0,0,1-6.343,2.247c-.3.1-.649.15-1,.25a31.793,31.793,0,0,1-3.6.3,13.326,13.326,0,0,1-12.586-8.191l-.3-.749a14.177,14.177,0,0,1-10.687,4.195h-1.149a36.167,36.167,0,0,1-7.192-1.248,16.916,16.916,0,0,1-6.891-3.746,25.728,25.728,0,0,1-9.539,1.748,36.09,36.09,0,0,1-5.094-.4c-8.391-1.3-14.933-4.894-19.378-10.338-3.9,3.4-9.139,5.594-16.281,5.594a46.151,46.151,0,0,1-6.543-.5c-5.793-.749-11.985-2.8-16.73-7.342a16.65,16.65,0,0,1-8.341,2.048h-.1a37.38,37.38,0,0,1-7.441-.9,21.446,21.446,0,0,1-4.3-1.548c-.05,0-.1.05-.15.05a18.18,18.18,0,0,1-6.692,1.1c-2.647,0-9.389-.45-13.934-4.4a8.14,8.14,0,0,1-.649-.649,16.786,16.786,0,0,1-2.847,1.348,20.824,20.824,0,0,1-7.141,1.1c-2.647,0-9.289-.4-13.834-4.046a9.278,9.278,0,0,1-1.548-1.6c-4.1,2.447-9.289,3.846-15.882,3.846-1.548,0-3.2-.1-4.944-.25-30.714-2.448-31.564-23.423-29.415-55.186l1.5-22.324c.1-1.9,1.5-11.337,15.782-11.337,4.045,0,11.486.7,15.731,5.294a11.7,11.7,0,0,1,2.647,4.546c1.5-3.247,5.244-7.242,14.383-7.242,3.4,0,11.836.5,16.331,5.443a11.038,11.038,0,0,1,2.946,8.59l-.6,6.343h.15a23.3,23.3,0,0,1,9.389,2.7,23.537,23.537,0,0,1,6.243-.849c.8,0,1.648.049,2.5.1a25.01,25.01,0,0,1,8.191,2.348c.8-6.243,1.548-11.387,2.2-14.184.649-3.6,3.4-10.638,14.683-10.837a35.807,35.807,0,0,1,8.041,1c10.988,2.9,11.736,10.837,11.536,14.133-.1,1.748-.649,6.892-1.3,13.085a30.022,30.022,0,0,1,6.593-.7,44.321,44.321,0,0,1,6.443.5c6.293.849,14.183,2.647,19.577,9.44a26.365,26.365,0,0,1,16.681-5.394,48.2,48.2,0,0,1,7.591.649,30.622,30.622,0,0,1,8.24,2.4c.9-4.595,1.648-8.291,2.3-10.538,1.2-4.994,5.444-10.089,13.984-10.089h1.249a35.96,35.96,0,0,1,7.691,1.349c10.887,3.5,11.237,11.437,10.837,14.733-.1,1.149-.5,3.7-1,6.892.949-.55,1.7-1,2.247-1.3a13.2,13.2,0,0,1,6.743-1.849c5.843,0,9.539,3.7,10.937,5.144a5.912,5.912,0,0,1,.549.6,50.77,50.77,0,0,1,3.8,5.293c.15.249.249.449.4.7C1007.353,1471.76,1001.56,1477.554,998.863,1479.551Z" fill="#25282d"/>
    <path id="_Compound_Path_" data-name="&lt;Compound Path&gt;" d="M290.479,1501.279c8.241-2.124,6.312-12.2-.919-12.88-8.954-.838-29.21,5.253-34.357-15.768-3.1-12.648,8.659-22.173,17.831-24.452,7.724-1.92,18.933-2.7,27.246.273,5.417,1.926,2.515,14.805-4.089,13.638-8.525-1.507-16.682-1.225-21.045.282-6.895,2.382-6.232,10.871,1.864,10.784,16.47-.176,32.133-1.263,34.51,17.807.857,6.877-2.7,20.741-19.077,24.327a36.427,36.427,0,0,1-28.261-4.791c-4.235-2.712-.008-14.674,4.494-12.74C273.81,1499.964,278.686,1504.319,290.479,1501.279Z" fill="#fff"/>
    <path id="_Compound_Path_2" data-name="&lt;Compound Path&gt;" d="M350.96,1479.517c.761,5.788,1.609,12.341,2.633,19.06.5,3.255-1.679,5.245-6.019,5.876-4.681.681-7.251.176-8.363-3.095a11.333,11.333,0,0,1-7.857,5.386c-7.452,1.149-15.275-2.954-17.176-14.7l-4.29-26.5c-.294-1.816.128-2.294,1.531-3.281,2.165-1.583,8.329-2.7,10.933-1.451a3.717,3.717,0,0,1,1.936,2.864c1.218,7.444,2.58,16.488,3.816,24.722.362,2.411,2.318,4.6,5.114,4.17,3-.457,3.877-3.476,3.664-5.367-.016-.108-.024-.162-.04-.27-.251-1.679-.529-3.5-.785-5.243-1.6-10.93-1.962-13.11-2.958-19.761-.272-1.819.226-2.3,1.64-3.273,2.392-1.588,8.77-2.654,11.5-1.4a3.735,3.735,0,0,1,1.9,2.888C349.271,1467.6,349.881,1471.31,350.96,1479.517Z" fill="#fff"/>
    <path id="_Compound_Path_3" data-name="&lt;Compound Path&gt;" d="M373.721,1500.833c-3.693.486-5.539.733-9.231,1.236-.882.12-1.767.3-2.445.335a3.63,3.63,0,0,1-4.138-3.4c-2-9.334-8.479-53.522-8.788-62.948-.292-2.569,1.815-3.355,4.169-4.009a13.3,13.3,0,0,1,3.661-.5c2.3.012,4.524.238,5.024,2.755.382,1.921,1.428,8.587,2.51,16.192.826-.179,1.652-.357,2.558-.475,10.109-1.33,22.146,2.15,24.686,22.723C394.6,1496.007,383.568,1499.538,373.721,1500.833Zm-3.786-36.869c-1.594.209-3.249.807-3.424,1.273-.861,2.3,1.224,8.683,1.509,10.839.456,3.438.912,6.875,1.273,10.119a6.242,6.242,0,0,0,3.606.415c4.855-.636,5.265-4.6,4.434-12.087C376.8,1469.734,374.847,1463.321,369.935,1463.964Z" fill="#fff"/>
    <path id="_Compound_Path_4" data-name="&lt;Compound Path&gt;" d="M419.682,1483.25a2.005,2.005,0,1,0-.493-3.979c-8.031.855-23.572,1.2-26.043-14.988-1.876-12.3,7.108-16.436,14.416-17.938,7.038-1.447,15.424.09,21.85,2.559,5.094,1.958,1.32,15.439-3.752,14.246-5.227-1.229-14.272-2.4-17.905-1.781-2.2.375-1.814,3.829.051,3.621,10.647-1.187,25.615-.218,26.324,15.275.485,10.606-2.557,14.865-16,16.83-9.46,1.383-16.9-.976-20.75-3.6-3.605-2.46-.3-15.876,4.572-13.676C406.255,1481.754,411.621,1484.314,419.682,1483.25Z" fill="#fff"/>
    <path id="_Compound_Path_5" data-name="&lt;Compound Path&gt;" d="M456.629,1478.042c2.743-.238,3.967-1.3,4.677-2.721,1.486-2.925,13.4,1.574,11.776,6.337-2.127,6.232-6.7,9.8-14.2,10.446-9.88.854-21.593-2.927-23.606-23.563-2.277-23.339,9.048-26.621,19.191-27.5,7.694-.665,11.984,1.59,16.047,7.949,3.519,5.509-7.615,12.072-10.742,8.171-1.015-1.275-2.417-2.111-5.122-1.876-4.933.429-5.627,4.385-4.95,11.9C450.133,1472,451.753,1478.466,456.629,1478.042Z" fill="#fff"/>
    <path id="_Compound_Path_6" data-name="&lt;Compound Path&gt;" d="M513.919,1457.231c.385,6.788-13.585,9.467-15.577,2.377-.627-2.208-1.282-3.667-4.125-3.477a4.825,4.825,0,0,0-4.734,5.093c.007.107.012.16.019.268.113,1.63.215,3.059.287,4.141.731,11.016.917,13.22,1.383,19.935.127,1.829-.394,2.276-1.844,3.126-2.435,1.4-8.7,2-11.275.558a3.769,3.769,0,0,1-1.675-3.007c-.648-7.519-1.022-11.257-1.574-19.515-.389-5.825-.816-12.421-1.409-19.189-.288-3.284,2.065-5.137,6.539-5.466,5.311-.391,7.976.52,8.492,4.913,1.777-2.646,4.941-5.723,9.627-6.025C505.744,1440.469,513.246,1445.355,513.919,1457.231Z" fill="#fff"/>
    <path id="_Compound_Path_7" data-name="&lt;Compound Path&gt;" d="M530.247,1443.513c.946,9.12,1.916,29.592,1.856,38.7-.016,2.449-2,3.91-4.3,4.636a12.038,12.038,0,0,1-4.845.251c-2.177-.45-4.4-1.753-4.682-4.173-1.049-8.877-2.243-29.573-2.135-38.687.029-2.429,2.133-3.978,4.3-4.658a12.528,12.528,0,0,1,4.965-.256C527.826,1439.816,529.995,1441.079,530.247,1443.513Zm-.87-18.131c-.027-.569-.041-.854-.068-1.422a6.27,6.27,0,0,0-6.728-5.794l-1.487.077a6.209,6.209,0,0,0-6.026,6.452c.032.568.048.854.079,1.422a6.272,6.272,0,0,0,6.66,5.84l1.477-.076A6.336,6.336,0,0,0,529.377,1425.382Z" fill="#fff"/>
    <path id="_Compound_Path_8" data-name="&lt;Compound Path&gt;" d="M551.967,1485.786c-3.717.14-5.576.215-9.292.373-.887.038-1.783.131-2.461.107a3.627,3.627,0,0,1-3.8-3.775c-1.123-9.48-3.47-54.079-2.9-63.493-.047-2.585,2.114-3.17,4.514-3.6a13.261,13.261,0,0,1,3.684-.156c2.284.225,4.474.658,4.737,3.21.2,1.948.624,8.682.994,16.354.838-.1,1.675-.2,2.591-.236,10.164-.384,21.807,4.2,22.426,24.919C573.16,1482.921,561.868,1485.412,551.967,1485.786Zm-.353-37.062c-1.6.06-3.3.5-3.52.949-1.072,2.212.411,8.759.5,10.933.135,3.465.27,6.93.329,10.193a6.218,6.218,0,0,0,3.545.749c4.883-.182,5.66-4.092,5.526-11.623C557.9,1455.108,556.555,1448.54,551.614,1448.724Z" fill="#fff"/>
    <path id="_Compound_Path_9" data-name="&lt;Compound Path&gt;" d="M612.777,1468.746c1.6,1.624,2.52,5.1,2.316,8.625a5.915,5.915,0,0,1-2.852,4.3c-3,1.99-9.068,3.4-13.647,3.462-12.776.172-23.115-3.083-23.642-23.81-.422-16.582,4.447-23.809,18.988-25.271,11.046-1.111,19.926,5.309,21.294,12.9,1.063,5.9.6,13.564-9.445,17.129a54.573,54.573,0,0,1-15.059,3.126,4.628,4.628,0,0,0,3.751,1.777c6.331-.1,10.669-1.761,13.813-2.477C610.42,1468.027,611.807,1467.732,612.777,1468.746ZM588.169,1457.5c5.812-.718,14.391-2.664,13.8-5.715-.221-1.017-2.147-3.527-7.818-2C589.1,1451.138,588.308,1453.756,588.169,1457.5Z" fill="#fff"/>
    <path id="_Compound_Path_10" data-name="&lt;Compound Path&gt;" d="M694.358,1447.043c-.418,2.309-.725,4.381-3.357,4.373-3.737-.011-7.724-.046-11.827-.092-.048,4.214-.151,7.885-.213,10.128-.135,4.822-.557,10.048,2.2,10.129a39.982,39.982,0,0,0,6.265.057,1.847,1.847,0,0,1,1.961,1.084,17.368,17.368,0,0,1,.811,10.569,1.615,1.615,0,0,1-.93,1.193,26.984,26.984,0,0,1-9.681,1.2c-13.322-.381-15.574-3.921-15.15-24.65.073-3.535.142-6.934.279-10.194-1.532-.032-2.991-.124-4.449-.223-2.636-.178-2.595-2.2-2.849-4.537a24.668,24.668,0,0,1,.081-4.823c.336-2.267.368-4.2,3.018-4.366,1.532-.1,3.155-.146,4.835-.179.253-5.434.484-9.712.542-12.5.054-2.584,2.245-3.029,4.589-3.3a23.447,23.447,0,0,1,4.945.121c2.182.371,4.427.864,4.353,3.516-.049,1.764-1.244,11.335-.274,12.365.859.912,8.2.452,11.962.779,2.654.23,2.814,2.339,3.063,4.528A22.36,22.36,0,0,1,694.358,1447.043Z" fill="#fff"/>
    <path id="_Compound_Path_11" data-name="&lt;Compound Path&gt;" d="M734.366,1463.789c-1.246,22.054-8.924,24.739-20.455,24.2-9.9-.46-18.984-4.329-18.192-26,.81-22.148,9.122-24.987,20.539-24.456C727.81,1438.073,735.619,1441.593,734.366,1463.789Zm-14.447-.761c.28-5.7.269-11.087-4.321-11.3-4.939-.229-5.175,5.141-5.426,10.847-.254,5.775-.484,11,4.4,11.224C719.38,1474.021,719.636,1468.8,719.919,1463.027Z" fill="#fff"/>
    <path id="_Compound_Path_12" data-name="&lt;Compound Path&gt;" d="M778.461,1477.144c10.71.854,9.777-9.359,11.285-27.243l1.89-22.417c.268-3.183,15.08-1.878,14.788,1.3-.823,8.961-1.234,13.442-2.057,22.4-3.221,34.31-7.671,42.346-27.088,40.8-19.281-1.536-22.644-9.578-20.281-44.574.6-8.924.9-13.386,1.506-22.309.224-3.323,14.909-2.277,14.661,1.045-.709,9.462-1.064,14.192-1.773,23.654C770.07,1468.384,767.406,1476.263,778.461,1477.144Z" fill="#fff"/>
    <path id="_Compound_Path_13" data-name="&lt;Compound Path&gt;" d="M845.911,1466.673c-1.216,10.67-1.825,16.006-3.041,26.677-.208,1.822-.729,2.175-2.311,2.747-2.451.955-8.514.425-10.655-1.443a3.783,3.783,0,0,1-1.1-3.262c.732-7.51,1.734-16.6,2.65-24.875a4.747,4.747,0,0,0-4.6-5.408,4.895,4.895,0,0,0-5.6,4.211l-.027.267c-.171,1.693-.351,3.524-.534,5.279-1.146,10.981-1.335,13.185-2.012,19.882-.185,1.825-.774,2.176-2.348,2.768-2.639.966-8.915.494-11.212-1.359a3.767,3.767,0,0,1-1.142-3.248c.635-7.519.9-11.266,1.752-19.5.6-5.807,1.3-12.378,1.859-19.15.273-3.285,2.906-4.714,7.373-4.28,4.953.48,7.371,1.685,7.561,5.4a13.561,13.561,0,0,1,10.5-3.422C840.682,1448.767,847.258,1454.854,845.911,1466.673Z" fill="#fff"/>
    <path id="_Compound_Path_14" data-name="&lt;Compound Path&gt;" d="M850.765,1497.277c-2.306-.564-4.27-1.486-4.078-4.033.708-9.391,5.341-55.908,7.549-65.093.369-2.559,2.6-2.79,5.045-2.831a27.591,27.591,0,0,1,5.3.633c2.224.591,4.315,1.378,4.169,3.934-.256,4.511-4.039,36.691-4.966,44.179-.992,8.03-2.18,16.14-3.06,20.858-.47,2.519-2.537,2.949-4.852,2.965A28.667,28.667,0,0,1,850.765,1497.277Z" fill="#fff"/>
    <path id="_Compound_Path_15" data-name="&lt;Compound Path&gt;" d="M904.886,1480.968c-3.179,21.859-11.082,23.855-22.543,22.3-9.835-1.331-18.564-5.984-15.871-27.5,2.753-21.99,11.3-24.088,22.644-22.552C900.6,1454.773,908.085,1458.969,904.886,1480.968Zm-14.354-2.032c.78-5.658,1.236-11.021-3.321-11.637-4.909-.664-5.616,4.665-6.368,10.327-.76,5.729-1.448,10.911,3.406,11.567C889.029,1489.839,889.743,1484.661,890.532,1478.935Z" fill="#fff"/>
    <path id="_Compound_Path_16" data-name="&lt;Compound Path&gt;" d="M925.944,1494.332c2.726.429,4.172-.307,5.2-1.514,2.15-2.481,12.661,4.756,9.934,8.987-3.57,5.536-8.886,7.894-16.332,6.718-9.817-1.55-20.291-8.04-17.282-28.553,3.4-23.2,15.2-23.661,25.281-22.068,7.644,1.207,11.276,4.43,13.7,11.581,2.1,6.2-10.316,9.883-12.419,5.344-.681-1.482-1.843-2.632-4.532-3.055-4.9-.772-6.528,2.9-7.678,10.358C921.081,1486.9,921.1,1493.57,925.944,1494.332Z" fill="#fff"/>
    <path id="_Compound_Path_17" data-name="&lt;Compound Path&gt;" d="M983.32,1514.97a33.031,33.031,0,0,1-4.572,1.631c-2.446.371-4.486.475-5.512-1.926-3.1-7.826-5.984-13.943-9.013-23.935-1.03.645-2.133,1.277-3.229,1.912l-.237.166c-1.208,6.483-2.462,12.64-3.39,16.524-.6,2.494-2.688,2.817-5,2.713a25.793,25.793,0,0,1-4.8-.824c-2.279-.681-4.2-1.7-3.875-4.236,1.185-9.344,8.171-55.564,10.845-64.626.5-2.537,2.744-2.654,5.191-2.571a24.855,24.855,0,0,1,4.984.855c2.2.7,4.253,1.593,3.973,4.142-.316,2.885-2.62,17-4.605,28.729,8.73-5.99,17.786-11.72,20.716-13.4,2.245-1.284,3.958-.029,5.651,1.673a39.458,39.458,0,0,1,2.839,4c1.089,2.212,1.711,4.2-.371,5.743-4.375,3.04-10.144,7.148-16.3,11.342,4.732,11.782,8.493,22.737,9.735,27.263C987.058,1512.636,985.422,1513.844,983.32,1514.97Z" fill="#fff"/>
  </g>
</svg>
